<svg xmlns="http://www.w3.org/2000/svg" xmlns:xlink="http://www.w3.org/1999/xlink" width="55" height="55" viewBox="0 0 55 55">
  <defs>
    <clipPath id="clip-path">
      <rect id="Rectangle_127" data-name="Rectangle 127" width="55" height="55" transform="translate(0 -0.343)" fill="none"/>
    </clipPath>
  </defs>
  <g id="Group_208" data-name="Group 208" transform="translate(300 0.062)">
    <g id="Group_207" data-name="Group 207" transform="translate(-300 0.281)" clip-path="url(#clip-path)">
      <path id="Path_11" data-name="Path 11" d="M52.722,38.12a27.529,27.529,0,1,0-9.942,12.072l5.238,2.029,6.86,2.658-4.686-12.1a27.451,27.451,0,0,0,2.53-4.661m-18.682-4.1a.8.8,0,0,0-.278.832l.534,1.758-6.086-.7a.28.28,0,0,0-.308.317l.375,6.495H26.6l.375-6.495a.28.28,0,0,0-.308-.317l-6.086.7.534-1.758a.8.8,0,0,0-.278-.832l-6.1-4.971,1.264-.6c.556-.2.4-.512.2-1.268l-.931-3.395,3.545.747a.543.543,0,0,0,.629-.378l.455-1.6,2.8,3.147c.4.5,1.206.5.955-.661l-1.2-6.374,1.606.834c.451.252.9.294,1.154-.158l2.219-4.15h0l2.219,4.15c.252.451.7.409,1.154.158l1.606-.834-1.2,6.374c-.252,1.165.556,1.165.955.661l2.8-3.147.455,1.6a.543.543,0,0,0,.629.378l3.545-.747-.931,3.395c-.2.755-.355,1.068.2,1.268l1.263.6Z" transform="translate(0 -0.221)" fill="#fff"/>
    </g>
  </g>
</svg>
